<?xml version="1.0" encoding="UTF-8"?>
<svg width="50px" height="50px" viewBox="0 0 50 50" version="1.1" xmlns="http://www.w3.org/2000/svg" xmlns:xlink="http://www.w3.org/1999/xlink">
    <!-- Generator: Sketch 45.2 (43514) - http://www.bohemiancoding.com/sketch -->
    <title>icon-success</title>
    <desc>Created with Sketch.</desc>
    <defs></defs>
    <g id="Icons" stroke="none" stroke-width="1" fill="none" fill-rule="evenodd">
        <g id="icon-success" fill-rule="nonzero" fill="#428A37">
            <path d="M3,44.9999681 C3,46.1006551 3.89848345,47 5.00003191,47 L44.9999681,47 C46.1006551,47 47,46.1015165 47,44.9999681 L47,5.00003191 C47,3.89934492 46.1015165,3 44.9999681,3 L5.00003191,3 C3.89934492,3 3,3.89848345 3,5.00003191 L3,44.9999681 Z M5.00003191,0 L44.9999681,0 C47.7614095,0 50,2.24553095 50,5.00003191 L50,44.9999681 C50,47.7614095 47.754469,50 44.9999681,50 L5.00003191,50 C2.23859054,50 0,47.754469 0,44.9999681 L0,5.00003191 C0,2.23859054 2.24553095,0 5.00003191,0 Z" id="Border"></path>
            <g id="checked" transform="translate(13.000000, 15.000000)">
                <path d="M9.35406838,19 C8.82653532,19 8.29845384,18.795647 7.89602479,18.3866316 L0.604100603,10.9809712 C-0.201366868,10.1629404 -0.201366868,8.83687396 0.604100603,8.01884316 C1.40956807,7.20081236 2.71526874,7.20081236 3.52073621,8.01884316 L9.35406838,13.9431611 L22.4793247,0.613430272 C23.2847922,-0.204352977 24.5907976,-0.204600528 25.3957166,0.613430272 C26.2014278,1.43146107 26.2014278,2.75783693 25.3957166,3.57555829 L10.8124167,18.3866316 C10.4096829,18.7953995 9.88184518,19 9.35406838,19 Z" id="Shape"></path>
            </g>
        </g>
    </g>
</svg>