<?xml version="1.0" encoding="UTF-8"?>
<svg width="9px" height="12px" viewBox="0 0 9 12" version="1.1" xmlns="http://www.w3.org/2000/svg" xmlns:xlink="http://www.w3.org/1999/xlink">
    <!-- Generator: Sketch 45.2 (43514) - http://www.bohemiancoding.com/sketch -->
    <title>₽</title>
    <desc>Created with Sketch.</desc>
    <defs></defs>
    <g id="Screens" stroke="none" stroke-width="1" fill="none" fill-rule="evenodd">
        <g id="17-type-page" transform="translate(-982.000000, -1162.000000)" fill="#4A4A4A">
            <path d="M982.560976,1167.85366 L983.715447,1167.85366 L983.715447,1162.66667 L986.691057,1162.66667 C987.243905,1162.66667 987.747965,1162.729 988.203252,1162.85366 C988.658539,1162.97832 989.048779,1163.16802 989.373984,1163.42276 C989.699189,1163.67751 989.953929,1164 990.138211,1164.39024 C990.322494,1164.78049 990.414634,1165.24661 990.414634,1165.78862 C990.414634,1166.33063 990.317074,1166.80217 990.121951,1167.20325 C989.926828,1167.60434 989.661248,1167.93767 989.325203,1168.20325 C988.989158,1168.46884 988.593498,1168.66667 988.138211,1168.79675 C987.682925,1168.92683 987.189705,1168.99187 986.658537,1168.99187 L985.01626,1168.99187 L985.01626,1170.63415 L987.634146,1170.63415 L987.634146,1171.70732 L985.01626,1171.70732 L985.01626,1174 L983.715447,1174 L983.715447,1171.70732 L982.560976,1171.70732 L982.560976,1170.63415 L983.715447,1170.63415 L983.715447,1168.99187 L982.560976,1168.99187 L982.560976,1167.85366 Z M986.691057,1167.85366 C987.439028,1167.85366 988.027098,1167.68293 988.455285,1167.34146 C988.883471,1167 989.097561,1166.48239 989.097561,1165.78862 C989.097561,1165.09485 988.883471,1164.59079 988.455285,1164.27642 C988.027098,1163.96206 987.439028,1163.80488 986.691057,1163.80488 L985.01626,1163.80488 L985.01626,1167.85366 L986.691057,1167.85366 Z" id="₽"></path>
        </g>
    </g>
</svg>