<?xml version="1.0" encoding="UTF-8"?>
<svg width="50px" height="50px" viewBox="0 0 50 50" version="1.1" xmlns="http://www.w3.org/2000/svg" xmlns:xlink="http://www.w3.org/1999/xlink">
    <!-- Generator: Sketch 40.3 (33839) - http://www.bohemiancoding.com/sketch -->
    <title>icon-orders</title>
    <desc>Created with Sketch.</desc>
    <defs></defs>
    <g id="Icons" stroke="none" stroke-width="1" fill="none" fill-rule="evenodd">
        <g id="icon-orders" fill="#B39E64">
            <path d="M3,44.9999681 C3,46.1006551 3.89848345,47 5.00003191,47 L44.9999681,47 C46.1006551,47 47,46.1015165 47,44.9999681 L47,5.00003191 C47,3.89934492 46.1015165,3 44.9999681,3 L5.00003191,3 C3.89934492,3 3,3.89848345 3,5.00003191 L3,44.9999681 Z M5.00003191,0 L44.9999681,0 C47.7614095,0 50,2.24553095 50,5.00003191 L50,44.9999681 C50,47.7614095 47.754469,50 44.9999681,50 L5.00003191,50 C2.23859054,50 0,47.754469 0,44.9999681 L0,5.00003191 C0,2.23859054 2.24553095,0 5.00003191,0 Z" id="Border"></path>
            <path d="M30.9879796,9.81800079 L14.7239579,9.81800079 C13.2330892,9.81800079 12.0132876,11.0378024 12.0132876,12.5286711 L12.0132876,31.5033631 L14.7239579,31.5033631 L14.7239579,12.5286711 L30.9879796,12.5286711 L30.9879796,9.81800079 L30.9879796,9.81800079 Z M35.053985,15.2393414 L20.1452984,15.2393414 C18.6544298,15.2393414 17.4346282,16.459143 17.4346282,17.9500116 L17.4346282,36.9247036 C17.4346282,38.4155723 18.6544298,39.6353739 20.1452984,39.6353739 L35.053985,39.6353739 C36.5448537,39.6353739 37.7646553,38.4155723 37.7646553,36.9247036 L37.7646553,17.9500116 C37.7646553,16.459143 36.5448537,15.2393414 35.053985,15.2393414 L35.053985,15.2393414 Z M35.053985,36.9247036 L20.1452984,36.9247036 L20.1452984,17.9500116 L35.053985,17.9500116 L35.053985,36.9247036 L35.053985,36.9247036 Z" id="Shape"></path>
        </g>
    </g>
</svg>